<svg width="1000" height="600" viewBox="0 0 1000 600" fill="none" xmlns="http://www.w3.org/2000/svg">
<rect width="1000" height="600" fill="white"/>
<path d="M344.083 237.333L333.094 226.344L322.104 237.333L333.094 248.323L344.083 237.333ZM499.5 252.875C508.084 252.875 515.042 245.917 515.042 237.333C515.042 228.75 508.084 221.792 499.5 221.792V252.875ZM395.261 164.177L333.094 226.344L355.073 248.323L417.24 186.156L395.261 164.177ZM333.094 248.323L395.261 310.489L417.24 288.51L355.073 226.344L333.094 248.323ZM344.083 252.875H499.5V221.792H344.083V252.875Z" fill="#6D6AFF"/>
<path d="M654.917 361.667L665.906 350.677L676.896 361.667L665.906 372.656L654.917 361.667ZM359.625 377.208C351.041 377.208 344.083 370.25 344.083 361.667C344.083 353.083 351.041 346.125 359.625 346.125L359.625 377.208ZM603.739 288.51L665.906 350.677L643.927 372.656L581.76 310.49L603.739 288.51ZM665.906 372.656L603.739 434.823L581.76 412.844L643.927 350.677L665.906 372.656ZM654.917 377.208L359.625 377.208L359.625 346.125L654.917 346.125L654.917 377.208Z" fill="#6D6AFF"/>
</svg>
