<svg width="1000" height="600" viewBox="0 0 1000 600" fill="none" xmlns="http://www.w3.org/2000/svg">
<rect width="1000" height="600" fill="white"/>
<path d="M660.834 223.278L440.612 149.871C433.944 147.648 430.61 146.537 428.305 148.198C426 149.86 426 153.374 426 160.402V322.619L660.834 244.341C673.896 239.987 680.427 237.81 680.427 233.81C680.427 229.809 673.896 227.632 660.834 223.278Z" fill="#6D6AFF"/>
<path d="M426 322.619V160.402C426 153.374 426 149.86 428.305 148.198C430.61 146.537 433.944 147.648 440.612 149.871L660.834 223.278C673.896 227.632 680.427 229.809 680.427 233.81C680.427 237.81 673.896 239.987 660.834 244.341L426 322.619ZM426 322.619V433.631V455.833" stroke="#6D6AFF" stroke-width="44.4048" stroke-linecap="round"/>
</svg>
