<svg width="1000" height="600" viewBox="0 0 1000 600" fill="none" xmlns="http://www.w3.org/2000/svg">
<rect width="1000" height="600" fill="white"/>
<path fill-rule="evenodd" clip-rule="evenodd" d="M536.989 147.893V147.893C538.43 162.299 539.15 169.502 542.165 173.454C545.989 178.468 552.209 181.044 558.458 180.203C563.385 179.541 568.987 174.957 580.193 165.789C586.112 160.945 589.072 158.523 592.257 157.506C596.303 156.213 600.679 156.432 604.576 158.12C607.644 159.449 610.348 162.154 615.756 167.562L631.437 183.243C636.845 188.651 639.55 191.356 640.879 194.423C642.567 198.32 642.786 202.696 641.493 206.742C640.476 209.927 638.054 212.887 633.21 218.806C624.042 230.012 619.458 235.615 618.795 240.541C617.955 246.79 620.531 253.01 625.544 256.834C629.496 259.849 636.7 260.57 651.106 262.01C658.718 262.771 662.523 263.152 665.495 264.685C669.269 266.631 672.209 269.88 673.771 273.829C675 276.939 675 280.763 675 288.412V310.589C675 318.236 675 322.06 673.771 325.169C672.21 329.119 669.269 332.369 665.493 334.315C662.522 335.847 658.718 336.228 651.108 336.989C636.706 338.429 629.505 339.149 625.553 342.162C620.538 345.987 617.96 352.209 618.802 358.461C619.466 363.385 624.048 368.986 633.213 380.188C638.055 386.105 640.476 389.064 641.494 392.248C642.787 396.295 642.568 400.673 640.879 404.571C639.55 407.637 636.846 410.341 631.44 415.747L615.757 431.43L615.757 431.43C610.349 436.838 607.644 439.542 604.577 440.872C600.68 442.56 596.304 442.778 592.258 441.486C589.073 440.469 586.113 438.047 580.194 433.203C568.988 424.035 563.385 419.451 558.459 418.788C552.21 417.948 545.99 420.524 542.166 425.537C539.151 429.489 538.43 436.694 536.99 451.102C536.228 458.717 535.847 462.524 534.314 465.497C532.367 469.269 529.12 472.209 525.172 473.77C522.062 475 518.236 475 510.585 475H488.413C480.763 475 476.939 475 473.829 473.771C469.88 472.209 466.631 469.269 464.685 465.495C463.152 462.523 462.772 458.718 462.01 451.106C460.57 436.7 459.849 429.496 456.834 425.544C453.01 420.531 446.791 417.955 440.542 418.795C435.615 419.458 430.012 424.042 418.807 433.21L418.806 433.211C412.886 438.054 409.926 440.476 406.741 441.494C402.696 442.786 398.32 442.568 394.423 440.879C391.355 439.55 388.651 436.846 383.242 431.437L367.562 415.757C362.153 410.348 359.449 407.644 358.12 404.576C356.431 400.679 356.213 396.303 357.505 392.258C358.523 389.073 360.945 386.113 365.788 380.193C374.957 368.987 379.541 363.384 380.203 358.458C381.044 352.209 378.468 345.989 373.455 342.165C369.502 339.15 362.299 338.43 347.893 336.989C340.282 336.228 336.477 335.847 333.505 334.315C329.731 332.368 326.791 329.119 325.229 325.17C324 322.061 324 318.236 324 310.587L324 288.414C324 280.763 324 276.938 325.23 273.828C326.791 269.88 329.731 266.632 333.504 264.685C336.476 263.152 340.282 262.771 347.895 262.01C362.305 260.569 369.51 259.849 373.463 256.832C378.474 253.008 381.05 246.791 380.21 240.543C379.548 235.615 374.963 230.011 365.791 218.802C360.946 212.879 358.523 209.918 357.506 206.732C356.214 202.688 356.433 198.313 358.12 194.418C359.449 191.349 362.154 188.644 367.565 183.233L367.565 183.233L383.243 167.555C388.652 162.146 391.356 159.442 394.424 158.112C398.321 156.424 402.697 156.206 406.742 157.498C409.927 158.516 412.888 160.938 418.809 165.782C430.013 174.949 435.615 179.533 440.54 180.196C446.79 181.038 453.012 178.461 456.837 173.445C459.85 169.494 460.571 162.293 462.011 147.891C462.772 140.282 463.152 136.478 464.684 133.507C466.631 129.731 469.881 126.79 473.831 125.229C476.94 124 480.763 124 488.41 124H510.588C518.236 124 522.061 124 525.17 125.229C529.119 126.791 532.368 129.731 534.315 133.505C535.847 136.477 536.228 140.282 536.989 147.893ZM499.5 369.7C538.27 369.7 569.7 338.271 569.7 299.5C569.7 260.73 538.27 229.3 499.5 229.3C460.729 229.3 429.3 260.73 429.3 299.5C429.3 338.271 460.729 369.7 499.5 369.7Z" fill="#4844EC"/>
</svg>
